<svg xmlns="http://www.w3.org/2000/svg" width="31.64" height="31.211" viewBox="0 0 31.64 31.211">
  <g id="그룹_1139" data-name="그룹 1139" transform="translate(-1824.36 -2422)">
    <path id="패스_1668" data-name="패스 1668" d="M3.5,0h2.91V-7.95h3.15V-10.5H.36v2.55H3.5Zm12.18.21a5.5,5.5,0,0,0,5.67-5.46v-.03a5.45,5.45,0,0,0-5.64-5.43,5.5,5.5,0,0,0-5.67,5.46v.03A5.45,5.45,0,0,0,15.675.21Zm.03-2.625a2.729,2.729,0,0,1-2.7-2.835v-.03a2.679,2.679,0,0,1,2.67-2.805A2.708,2.708,0,0,1,18.36-5.25v.03A2.676,2.676,0,0,1,15.7-2.415ZM22.845,0h2.91V-3H27.21c2.595,0,4.5-1.3,4.5-3.8v-.03c0-2.31-1.71-3.675-4.35-3.675H22.845Zm2.91-5.28V-8.055h1.38c1.035,0,1.68.465,1.68,1.365v.03c0,.825-.645,1.38-1.665,1.38Z" transform="translate(1824 2453)"/>
    <path id="패스_3" data-name="패스 3" d="M67.558,11.156a16.269,16.269,0,0,0,11.578-4.8L80.51,4.933,81.883,6.36a16.268,16.268,0,0,0,11.578,4.8H96V7.667H93.462a12.884,12.884,0,0,1-9.111-3.774L80.51,0,76.669,3.893a12.886,12.886,0,0,1-9.111,3.774L65,7.632v3.523Z" transform="translate(1760 2422)"/>
  </g>
</svg>
